<svg xmlns="http://www.w3.org/2000/svg" width="1512" height="982" viewBox="0 0 1512 982" font-family="Inter,Helvetica,Arial,sans-serif">
<defs>
<linearGradient id="backdrop" x1="0" y1="0" x2="1" y2="1"><stop offset="0" stop-color="#1E1B2E"/><stop offset="1" stop-color="#3A3447"/></linearGradient>
<filter id="shadow" x="-20%" y="-20%" width="140%" height="140%"><feDropShadow dx="0" dy="6" stdDeviation="10" flood-color="#000000" flood-opacity="0.28"/></filter>
</defs>
<rect width="1512" height="982" fill="url(#backdrop)"/>
<text x="60" y="56" font-size="26" font-weight="700" fill="#F2EEE2">Bridge — color scheme explorations</text>
<text x="60" y="78" font-size="14" fill="#9E98AC">Multi-agent orchestration surface · palette sampled from print (coral / cobalt / purple / olive) applied to different UI elements</text>
<rect x="1320" y="40" width="26" height="26" rx="6" fill="#F9573C" stroke="#FFFFFF" stroke-opacity="0.2"/>
<rect x="1354" y="40" width="26" height="26" rx="6" fill="#2F39A6" stroke="#FFFFFF" stroke-opacity="0.2"/>
<rect x="1388" y="40" width="26" height="26" rx="6" fill="#5E5570" stroke="#FFFFFF" stroke-opacity="0.2"/>
<rect x="1422" y="40" width="26" height="26" rx="6" fill="#9A8A4E" stroke="#FFFFFF" stroke-opacity="0.2"/>
<g transform="translate(60.0,96.0)">
<rect x="0" y="0" width="432.0" height="393.0" rx="20" ry="20" fill="#5E5570" stroke="#F9573C" stroke-width="1.5" filter="url(#shadow)"/>
<circle cx="34" cy="34" r="8" fill="#F9573C"/>
<text x="52" y="40" font-family="Inter,Helvetica,Arial,sans-serif" font-size="20" font-weight="700" fill="#F2EEE2">Bridge</text>
<text x="406.0" y="38" text-anchor="end" font-family="Inter,Helvetica,Arial,sans-serif" font-size="12" font-weight="600" letter-spacing="1.5" fill="#C9C3D4">RISO</text>
<line x1="26" y1="58" x2="406.0" y2="58" stroke="#C9C3D4" stroke-width="1" opacity="0.4"/>
<text x="26" y="84" font-family="Inter,Helvetica,Arial,sans-serif" font-size="11" font-weight="600" letter-spacing="1.5" fill="#C9C3D4">ACTIVE AGENTS</text>
<rect x="26" y="106.0" width="124" height="34" rx="17.0" fill="#2F39A6"/>
<text x="88.0" y="127.0" text-anchor="middle" font-family="Inter,Helvetica,Arial,sans-serif" font-size="13" font-weight="600" fill="#F2EEE2">Planner</text>
<circle cx="172.0" cy="123.0" r="5" fill="#F9573C"/>
<text x="188.0" y="128.0" font-family="Inter,Helvetica,Arial,sans-serif" font-size="14" fill="#F2EEE2">Running</text>
<text x="406.0" y="128.0" text-anchor="end" font-family="Inter,Helvetica,Arial,sans-serif" font-size="12" fill="#C9C3D4">step 3/5</text>
<rect x="26" y="152.0" width="124" height="34" rx="17.0" fill="#2F39A6"/>
<text x="88.0" y="173.0" text-anchor="middle" font-family="Inter,Helvetica,Arial,sans-serif" font-size="13" font-weight="600" fill="#F2EEE2">Explorer</text>
<circle cx="172.0" cy="169.0" r="5" fill="#F9573C"/>
<text x="188.0" y="174.0" font-family="Inter,Helvetica,Arial,sans-serif" font-size="14" fill="#F2EEE2">Running</text>
<text x="406.0" y="174.0" text-anchor="end" font-family="Inter,Helvetica,Arial,sans-serif" font-size="12" fill="#C9C3D4">step 3/5</text>
<rect x="26" y="198.0" width="124" height="34" rx="17.0" fill="#2F39A6"/>
<text x="88.0" y="219.0" text-anchor="middle" font-family="Inter,Helvetica,Arial,sans-serif" font-size="13" font-weight="600" fill="#F2EEE2">Coder</text>
<circle cx="172.0" cy="215.0" r="5" fill="#9A8A4E"/>
<text x="188.0" y="220.0" font-family="Inter,Helvetica,Arial,sans-serif" font-size="14" fill="#F2EEE2">Queued</text>
<text x="406.0" y="220.0" text-anchor="end" font-family="Inter,Helvetica,Arial,sans-serif" font-size="12" fill="#C9C3D4">waiting</text>
<rect x="26" y="244.0" width="124" height="34" rx="17.0" fill="#2F39A6"/>
<text x="88.0" y="265.0" text-anchor="middle" font-family="Inter,Helvetica,Arial,sans-serif" font-size="13" font-weight="600" fill="#F2EEE2">Reviewer</text>
<circle cx="172.0" cy="261.0" r="5" fill="#C9C3D4"/>
<text x="188.0" y="266.0" font-family="Inter,Helvetica,Arial,sans-serif" font-size="14" fill="#F2EEE2">Idle</text>
<text x="406.0" y="266.0" text-anchor="end" font-family="Inter,Helvetica,Arial,sans-serif" font-size="12" fill="#C9C3D4">—</text>
<line x1="26" y1="337.0" x2="406.0" y2="337.0" stroke="#C9C3D4" stroke-width="1" opacity="0.4"/>
<circle cx="32" cy="359.0" r="5" fill="#F9573C"/>
<text x="46" y="364.0" font-family="Inter,Helvetica,Arial,sans-serif" font-size="13" font-weight="500" fill="#F2EEE2">4 agents · 2 running</text>
<text x="406.0" y="364.0" text-anchor="end" font-family="Inter,Helvetica,Arial,sans-serif" font-size="12" fill="#C9C3D4">main · synced</text>
</g>
<g transform="translate(540.0,96.0)">
<rect x="0" y="0" width="432.0" height="393.0" rx="20" ry="20" fill="#2F39A6" stroke="#9A8A4E" stroke-width="1.5" filter="url(#shadow)"/>
<circle cx="34" cy="34" r="8" fill="#F9573C"/>
<text x="52" y="40" font-family="Inter,Helvetica,Arial,sans-serif" font-size="20" font-weight="700" fill="#F2EEE2">Bridge</text>
<text x="406.0" y="38" text-anchor="end" font-family="Inter,Helvetica,Arial,sans-serif" font-size="12" font-weight="600" letter-spacing="1.5" fill="#AEB3E0">COBALT</text>
<line x1="26" y1="58" x2="406.0" y2="58" stroke="#AEB3E0" stroke-width="1" opacity="0.4"/>
<text x="26" y="84" font-family="Inter,Helvetica,Arial,sans-serif" font-size="11" font-weight="600" letter-spacing="1.5" fill="#AEB3E0">ACTIVE AGENTS</text>
<rect x="26" y="106.0" width="124" height="34" rx="17.0" fill="#F9573C"/>
<text x="88.0" y="127.0" text-anchor="middle" font-family="Inter,Helvetica,Arial,sans-serif" font-size="13" font-weight="600" fill="#F2EEE2">Planner</text>
<circle cx="172.0" cy="123.0" r="5" fill="#F9573C"/>
<text x="188.0" y="128.0" font-family="Inter,Helvetica,Arial,sans-serif" font-size="14" fill="#F2EEE2">Running</text>
<text x="406.0" y="128.0" text-anchor="end" font-family="Inter,Helvetica,Arial,sans-serif" font-size="12" fill="#AEB3E0">step 3/5</text>
<rect x="26" y="152.0" width="124" height="34" rx="17.0" fill="#F9573C"/>
<text x="88.0" y="173.0" text-anchor="middle" font-family="Inter,Helvetica,Arial,sans-serif" font-size="13" font-weight="600" fill="#F2EEE2">Explorer</text>
<circle cx="172.0" cy="169.0" r="5" fill="#F9573C"/>
<text x="188.0" y="174.0" font-family="Inter,Helvetica,Arial,sans-serif" font-size="14" fill="#F2EEE2">Running</text>
<text x="406.0" y="174.0" text-anchor="end" font-family="Inter,Helvetica,Arial,sans-serif" font-size="12" fill="#AEB3E0">step 3/5</text>
<rect x="26" y="198.0" width="124" height="34" rx="17.0" fill="#F9573C"/>
<text x="88.0" y="219.0" text-anchor="middle" font-family="Inter,Helvetica,Arial,sans-serif" font-size="13" font-weight="600" fill="#F2EEE2">Coder</text>
<circle cx="172.0" cy="215.0" r="5" fill="#9A8A4E"/>
<text x="188.0" y="220.0" font-family="Inter,Helvetica,Arial,sans-serif" font-size="14" fill="#F2EEE2">Queued</text>
<text x="406.0" y="220.0" text-anchor="end" font-family="Inter,Helvetica,Arial,sans-serif" font-size="12" fill="#AEB3E0">waiting</text>
<rect x="26" y="244.0" width="124" height="34" rx="17.0" fill="#F9573C"/>
<text x="88.0" y="265.0" text-anchor="middle" font-family="Inter,Helvetica,Arial,sans-serif" font-size="13" font-weight="600" fill="#F2EEE2">Reviewer</text>
<circle cx="172.0" cy="261.0" r="5" fill="#AEB3E0"/>
<text x="188.0" y="266.0" font-family="Inter,Helvetica,Arial,sans-serif" font-size="14" fill="#F2EEE2">Idle</text>
<text x="406.0" y="266.0" text-anchor="end" font-family="Inter,Helvetica,Arial,sans-serif" font-size="12" fill="#AEB3E0">—</text>
<line x1="26" y1="337.0" x2="406.0" y2="337.0" stroke="#AEB3E0" stroke-width="1" opacity="0.4"/>
<circle cx="32" cy="359.0" r="5" fill="#F9573C"/>
<text x="46" y="364.0" font-family="Inter,Helvetica,Arial,sans-serif" font-size="13" font-weight="500" fill="#F2EEE2">4 agents · 2 running</text>
<text x="406.0" y="364.0" text-anchor="end" font-family="Inter,Helvetica,Arial,sans-serif" font-size="12" fill="#AEB3E0">main · synced</text>
</g>
<g transform="translate(1020.0,96.0)">
<rect x="0" y="0" width="432.0" height="393.0" rx="20" ry="20" fill="#F9573C" stroke="#1E1B2E" stroke-width="1.5" filter="url(#shadow)"/>
<circle cx="34" cy="34" r="8" fill="#2F39A6"/>
<text x="52" y="40" font-family="Inter,Helvetica,Arial,sans-serif" font-size="20" font-weight="700" fill="#1E1B2E">Bridge</text>
<text x="406.0" y="38" text-anchor="end" font-family="Inter,Helvetica,Arial,sans-serif" font-size="12" font-weight="600" letter-spacing="1.5" fill="#7A2418">CORAL</text>
<line x1="26" y1="58" x2="406.0" y2="58" stroke="#7A2418" stroke-width="1" opacity="0.4"/>
<text x="26" y="84" font-family="Inter,Helvetica,Arial,sans-serif" font-size="11" font-weight="600" letter-spacing="1.5" fill="#7A2418">ACTIVE AGENTS</text>
<rect x="26" y="106.0" width="124" height="34" rx="17.0" fill="#2F39A6"/>
<text x="88.0" y="127.0" text-anchor="middle" font-family="Inter,Helvetica,Arial,sans-serif" font-size="13" font-weight="600" fill="#F2EEE2">Planner</text>
<circle cx="172.0" cy="123.0" r="5" fill="#2F39A6"/>
<text x="188.0" y="128.0" font-family="Inter,Helvetica,Arial,sans-serif" font-size="14" fill="#1E1B2E">Running</text>
<text x="406.0" y="128.0" text-anchor="end" font-family="Inter,Helvetica,Arial,sans-serif" font-size="12" fill="#7A2418">step 3/5</text>
<rect x="26" y="152.0" width="124" height="34" rx="17.0" fill="#2F39A6"/>
<text x="88.0" y="173.0" text-anchor="middle" font-family="Inter,Helvetica,Arial,sans-serif" font-size="13" font-weight="600" fill="#F2EEE2">Explorer</text>
<circle cx="172.0" cy="169.0" r="5" fill="#2F39A6"/>
<text x="188.0" y="174.0" font-family="Inter,Helvetica,Arial,sans-serif" font-size="14" fill="#1E1B2E">Running</text>
<text x="406.0" y="174.0" text-anchor="end" font-family="Inter,Helvetica,Arial,sans-serif" font-size="12" fill="#7A2418">step 3/5</text>
<rect x="26" y="198.0" width="124" height="34" rx="17.0" fill="#2F39A6"/>
<text x="88.0" y="219.0" text-anchor="middle" font-family="Inter,Helvetica,Arial,sans-serif" font-size="13" font-weight="600" fill="#F2EEE2">Coder</text>
<circle cx="172.0" cy="215.0" r="5" fill="#1E1B2E"/>
<text x="188.0" y="220.0" font-family="Inter,Helvetica,Arial,sans-serif" font-size="14" fill="#1E1B2E">Queued</text>
<text x="406.0" y="220.0" text-anchor="end" font-family="Inter,Helvetica,Arial,sans-serif" font-size="12" fill="#7A2418">waiting</text>
<rect x="26" y="244.0" width="124" height="34" rx="17.0" fill="#2F39A6"/>
<text x="88.0" y="265.0" text-anchor="middle" font-family="Inter,Helvetica,Arial,sans-serif" font-size="13" font-weight="600" fill="#F2EEE2">Reviewer</text>
<circle cx="172.0" cy="261.0" r="5" fill="#7A2418"/>
<text x="188.0" y="266.0" font-family="Inter,Helvetica,Arial,sans-serif" font-size="14" fill="#1E1B2E">Idle</text>
<text x="406.0" y="266.0" text-anchor="end" font-family="Inter,Helvetica,Arial,sans-serif" font-size="12" fill="#7A2418">—</text>
<line x1="26" y1="337.0" x2="406.0" y2="337.0" stroke="#7A2418" stroke-width="1" opacity="0.4"/>
<circle cx="32" cy="359.0" r="5" fill="#2F39A6"/>
<text x="46" y="364.0" font-family="Inter,Helvetica,Arial,sans-serif" font-size="13" font-weight="500" fill="#1E1B2E">4 agents · 2 running</text>
<text x="406.0" y="364.0" text-anchor="end" font-family="Inter,Helvetica,Arial,sans-serif" font-size="12" fill="#7A2418">main · synced</text>
</g>
<g transform="translate(60.0,533.0)">
<rect x="0" y="0" width="432.0" height="393.0" rx="20" ry="20" fill="#F2EEE2" stroke="#9A8A4E" stroke-width="1.5" filter="url(#shadow)"/>
<circle cx="34" cy="34" r="8" fill="#F9573C"/>
<text x="52" y="40" font-family="Inter,Helvetica,Arial,sans-serif" font-size="20" font-weight="700" fill="#1E1B2E">Bridge</text>
<text x="406.0" y="38" text-anchor="end" font-family="Inter,Helvetica,Arial,sans-serif" font-size="12" font-weight="600" letter-spacing="1.5" fill="#8A8478">PAPER</text>
<line x1="26" y1="58" x2="406.0" y2="58" stroke="#8A8478" stroke-width="1" opacity="0.4"/>
<text x="26" y="84" font-family="Inter,Helvetica,Arial,sans-serif" font-size="11" font-weight="600" letter-spacing="1.5" fill="#8A8478">ACTIVE AGENTS</text>
<rect x="26" y="106.0" width="124" height="34" rx="17.0" fill="#F9573C"/>
<text x="88.0" y="127.0" text-anchor="middle" font-family="Inter,Helvetica,Arial,sans-serif" font-size="13" font-weight="600" fill="#F2EEE2">Planner</text>
<circle cx="172.0" cy="123.0" r="5" fill="#F9573C"/>
<text x="188.0" y="128.0" font-family="Inter,Helvetica,Arial,sans-serif" font-size="14" fill="#1E1B2E">Running</text>
<text x="406.0" y="128.0" text-anchor="end" font-family="Inter,Helvetica,Arial,sans-serif" font-size="12" fill="#8A8478">step 3/5</text>
<rect x="26" y="152.0" width="124" height="34" rx="17.0" fill="#F9573C"/>
<text x="88.0" y="173.0" text-anchor="middle" font-family="Inter,Helvetica,Arial,sans-serif" font-size="13" font-weight="600" fill="#F2EEE2">Explorer</text>
<circle cx="172.0" cy="169.0" r="5" fill="#F9573C"/>
<text x="188.0" y="174.0" font-family="Inter,Helvetica,Arial,sans-serif" font-size="14" fill="#1E1B2E">Running</text>
<text x="406.0" y="174.0" text-anchor="end" font-family="Inter,Helvetica,Arial,sans-serif" font-size="12" fill="#8A8478">step 3/5</text>
<rect x="26" y="198.0" width="124" height="34" rx="17.0" fill="#F9573C"/>
<text x="88.0" y="219.0" text-anchor="middle" font-family="Inter,Helvetica,Arial,sans-serif" font-size="13" font-weight="600" fill="#F2EEE2">Coder</text>
<circle cx="172.0" cy="215.0" r="5" fill="#2F39A6"/>
<text x="188.0" y="220.0" font-family="Inter,Helvetica,Arial,sans-serif" font-size="14" fill="#1E1B2E">Queued</text>
<text x="406.0" y="220.0" text-anchor="end" font-family="Inter,Helvetica,Arial,sans-serif" font-size="12" fill="#8A8478">waiting</text>
<rect x="26" y="244.0" width="124" height="34" rx="17.0" fill="#F9573C"/>
<text x="88.0" y="265.0" text-anchor="middle" font-family="Inter,Helvetica,Arial,sans-serif" font-size="13" font-weight="600" fill="#F2EEE2">Reviewer</text>
<circle cx="172.0" cy="261.0" r="5" fill="#8A8478"/>
<text x="188.0" y="266.0" font-family="Inter,Helvetica,Arial,sans-serif" font-size="14" fill="#1E1B2E">Idle</text>
<text x="406.0" y="266.0" text-anchor="end" font-family="Inter,Helvetica,Arial,sans-serif" font-size="12" fill="#8A8478">—</text>
<line x1="26" y1="337.0" x2="406.0" y2="337.0" stroke="#8A8478" stroke-width="1" opacity="0.4"/>
<circle cx="32" cy="359.0" r="5" fill="#F9573C"/>
<text x="46" y="364.0" font-family="Inter,Helvetica,Arial,sans-serif" font-size="13" font-weight="500" fill="#1E1B2E">4 agents · 2 running</text>
<text x="406.0" y="364.0" text-anchor="end" font-family="Inter,Helvetica,Arial,sans-serif" font-size="12" fill="#8A8478">main · synced</text>
</g>
<g transform="translate(540.0,533.0)">
<rect x="0" y="0" width="432.0" height="393.0" rx="20" ry="20" fill="#1E1B2E" stroke="#F9573C" stroke-width="1.5" filter="url(#shadow)"/>
<circle cx="34" cy="34" r="8" fill="#F9573C"/>
<text x="52" y="40" font-family="Inter,Helvetica,Arial,sans-serif" font-size="20" font-weight="700" fill="#F2EEE2">Bridge</text>
<text x="406.0" y="38" text-anchor="end" font-family="Inter,Helvetica,Arial,sans-serif" font-size="12" font-weight="600" letter-spacing="1.5" fill="#8E88A0">MIDNIGHT</text>
<line x1="26" y1="58" x2="406.0" y2="58" stroke="#8E88A0" stroke-width="1" opacity="0.4"/>
<text x="26" y="84" font-family="Inter,Helvetica,Arial,sans-serif" font-size="11" font-weight="600" letter-spacing="1.5" fill="#8E88A0">ACTIVE AGENTS</text>
<rect x="26" y="106.0" width="124" height="34" rx="17.0" fill="#2F39A6"/>
<text x="88.0" y="127.0" text-anchor="middle" font-family="Inter,Helvetica,Arial,sans-serif" font-size="13" font-weight="600" fill="#F2EEE2">Planner</text>
<circle cx="172.0" cy="123.0" r="5" fill="#F9573C"/>
<text x="188.0" y="128.0" font-family="Inter,Helvetica,Arial,sans-serif" font-size="14" fill="#F2EEE2">Running</text>
<text x="406.0" y="128.0" text-anchor="end" font-family="Inter,Helvetica,Arial,sans-serif" font-size="12" fill="#8E88A0">step 3/5</text>
<rect x="26" y="152.0" width="124" height="34" rx="17.0" fill="#2F39A6"/>
<text x="88.0" y="173.0" text-anchor="middle" font-family="Inter,Helvetica,Arial,sans-serif" font-size="13" font-weight="600" fill="#F2EEE2">Explorer</text>
<circle cx="172.0" cy="169.0" r="5" fill="#F9573C"/>
<text x="188.0" y="174.0" font-family="Inter,Helvetica,Arial,sans-serif" font-size="14" fill="#F2EEE2">Running</text>
<text x="406.0" y="174.0" text-anchor="end" font-family="Inter,Helvetica,Arial,sans-serif" font-size="12" fill="#8E88A0">step 3/5</text>
<rect x="26" y="198.0" width="124" height="34" rx="17.0" fill="#2F39A6"/>
<text x="88.0" y="219.0" text-anchor="middle" font-family="Inter,Helvetica,Arial,sans-serif" font-size="13" font-weight="600" fill="#F2EEE2">Coder</text>
<circle cx="172.0" cy="215.0" r="5" fill="#9A8A4E"/>
<text x="188.0" y="220.0" font-family="Inter,Helvetica,Arial,sans-serif" font-size="14" fill="#F2EEE2">Queued</text>
<text x="406.0" y="220.0" text-anchor="end" font-family="Inter,Helvetica,Arial,sans-serif" font-size="12" fill="#8E88A0">waiting</text>
<rect x="26" y="244.0" width="124" height="34" rx="17.0" fill="#2F39A6"/>
<text x="88.0" y="265.0" text-anchor="middle" font-family="Inter,Helvetica,Arial,sans-serif" font-size="13" font-weight="600" fill="#F2EEE2">Reviewer</text>
<circle cx="172.0" cy="261.0" r="5" fill="#8E88A0"/>
<text x="188.0" y="266.0" font-family="Inter,Helvetica,Arial,sans-serif" font-size="14" fill="#F2EEE2">Idle</text>
<text x="406.0" y="266.0" text-anchor="end" font-family="Inter,Helvetica,Arial,sans-serif" font-size="12" fill="#8E88A0">—</text>
<line x1="26" y1="337.0" x2="406.0" y2="337.0" stroke="#8E88A0" stroke-width="1" opacity="0.4"/>
<circle cx="32" cy="359.0" r="5" fill="#F9573C"/>
<text x="46" y="364.0" font-family="Inter,Helvetica,Arial,sans-serif" font-size="13" font-weight="500" fill="#F2EEE2">4 agents · 2 running</text>
<text x="406.0" y="364.0" text-anchor="end" font-family="Inter,Helvetica,Arial,sans-serif" font-size="12" fill="#8E88A0">main · synced</text>
</g>
<g transform="translate(1020.0,533.0)">
<rect x="0" y="0" width="432.0" height="393.0" rx="20" ry="20" fill="#9A8A4E" stroke="#1E1B2E" stroke-width="1.5" filter="url(#shadow)"/>
<circle cx="34" cy="34" r="8" fill="#2F39A6"/>
<text x="52" y="40" font-family="Inter,Helvetica,Arial,sans-serif" font-size="20" font-weight="700" fill="#1E1B2E">Bridge</text>
<text x="406.0" y="38" text-anchor="end" font-family="Inter,Helvetica,Arial,sans-serif" font-size="12" font-weight="600" letter-spacing="1.5" fill="#5C5436">OLIVE</text>
<line x1="26" y1="58" x2="406.0" y2="58" stroke="#5C5436" stroke-width="1" opacity="0.4"/>
<text x="26" y="84" font-family="Inter,Helvetica,Arial,sans-serif" font-size="11" font-weight="600" letter-spacing="1.5" fill="#5C5436">ACTIVE AGENTS</text>
<rect x="26" y="106.0" width="124" height="34" rx="17.0" fill="#F9573C"/>
<text x="88.0" y="127.0" text-anchor="middle" font-family="Inter,Helvetica,Arial,sans-serif" font-size="13" font-weight="600" fill="#F2EEE2">Planner</text>
<circle cx="172.0" cy="123.0" r="5" fill="#2F39A6"/>
<text x="188.0" y="128.0" font-family="Inter,Helvetica,Arial,sans-serif" font-size="14" fill="#1E1B2E">Running</text>
<text x="406.0" y="128.0" text-anchor="end" font-family="Inter,Helvetica,Arial,sans-serif" font-size="12" fill="#5C5436">step 3/5</text>
<rect x="26" y="152.0" width="124" height="34" rx="17.0" fill="#F9573C"/>
<text x="88.0" y="173.0" text-anchor="middle" font-family="Inter,Helvetica,Arial,sans-serif" font-size="13" font-weight="600" fill="#F2EEE2">Explorer</text>
<circle cx="172.0" cy="169.0" r="5" fill="#2F39A6"/>
<text x="188.0" y="174.0" font-family="Inter,Helvetica,Arial,sans-serif" font-size="14" fill="#1E1B2E">Running</text>
<text x="406.0" y="174.0" text-anchor="end" font-family="Inter,Helvetica,Arial,sans-serif" font-size="12" fill="#5C5436">step 3/5</text>
<rect x="26" y="198.0" width="124" height="34" rx="17.0" fill="#F9573C"/>
<text x="88.0" y="219.0" text-anchor="middle" font-family="Inter,Helvetica,Arial,sans-serif" font-size="13" font-weight="600" fill="#F2EEE2">Coder</text>
<circle cx="172.0" cy="215.0" r="5" fill="#2F39A6"/>
<text x="188.0" y="220.0" font-family="Inter,Helvetica,Arial,sans-serif" font-size="14" fill="#1E1B2E">Queued</text>
<text x="406.0" y="220.0" text-anchor="end" font-family="Inter,Helvetica,Arial,sans-serif" font-size="12" fill="#5C5436">waiting</text>
<rect x="26" y="244.0" width="124" height="34" rx="17.0" fill="#F9573C"/>
<text x="88.0" y="265.0" text-anchor="middle" font-family="Inter,Helvetica,Arial,sans-serif" font-size="13" font-weight="600" fill="#F2EEE2">Reviewer</text>
<circle cx="172.0" cy="261.0" r="5" fill="#5C5436"/>
<text x="188.0" y="266.0" font-family="Inter,Helvetica,Arial,sans-serif" font-size="14" fill="#1E1B2E">Idle</text>
<text x="406.0" y="266.0" text-anchor="end" font-family="Inter,Helvetica,Arial,sans-serif" font-size="12" fill="#5C5436">—</text>
<line x1="26" y1="337.0" x2="406.0" y2="337.0" stroke="#5C5436" stroke-width="1" opacity="0.4"/>
<circle cx="32" cy="359.0" r="5" fill="#2F39A6"/>
<text x="46" y="364.0" font-family="Inter,Helvetica,Arial,sans-serif" font-size="13" font-weight="500" fill="#1E1B2E">4 agents · 2 running</text>
<text x="406.0" y="364.0" text-anchor="end" font-family="Inter,Helvetica,Arial,sans-serif" font-size="12" fill="#5C5436">main · synced</text>
</g>
</svg>